<svg width="110" height="28" viewBox="0 0 110 28" fill="none" xmlns="http://www.w3.org/2000/svg">
<g clip-path="url(#clip0_198_524)">
<path d="M24.7381 7.80241C24.2101 6.8878 20.4947 4.86694 19.5794 4.33828C18.6648 3.81162 15.056 1.60449 13.9993 1.60449C12.9426 1.60449 9.33377 3.81095 8.41916 4.33828C7.50388 4.86694 3.78847 6.8878 3.25981 7.80241C2.73181 8.71702 2.83902 12.9443 2.83902 14.0003C2.83902 15.0563 2.73181 19.2836 3.26048 20.1982C3.78847 21.1129 7.50388 23.1337 8.41916 23.6624C9.33444 24.191 12.9426 26.3962 13.9993 26.3962C15.056 26.3962 18.6648 24.1897 19.5794 23.6624C20.4947 23.1337 24.2101 21.1129 24.7388 20.1982C25.2668 19.2836 25.1596 15.0563 25.1596 14.0003C25.1596 12.9443 25.2668 8.71702 24.7381 7.80241Z" stroke="#6300FF" stroke-width="1.5" stroke-linecap="round" stroke-linejoin="round"/>
<path d="M10.8503 2.94238L17.7987 6.9526V16.2388M13.7825 9.28369L5.72852 13.9318V22.0956" stroke="#6300FF" stroke-width="1.5" stroke-linecap="round" stroke-linejoin="round"/>
<path d="M2.84961 10.9481L9.7618 6.95801L13.7794 9.28038L13.7734 13.9238M9.7618 16.2448L17.809 20.8889L25.1554 16.6495" stroke="#6300FF" stroke-width="1.5" stroke-linecap="round" stroke-linejoin="round"/>
<path d="M17.0675 25.1033L9.75195 20.882L9.75731 16.2453L13.787 13.9236L17.8106 16.2453L21.8215 13.931V5.63379" stroke="#6300FF" stroke-width="1.5" stroke-linecap="round" stroke-linejoin="round"/>
<path d="M49.3878 6.45455V21H47.044L40.1903 11.0923H40.0696V21H37.4347V6.45455H39.7926L46.6392 16.3693H46.767V6.45455H49.3878ZM52.1452 21V10.0909H54.7163V21H52.1452ZM53.4379 8.54261C53.0307 8.54261 52.6803 8.40767 52.3867 8.13778C52.0932 7.86316 51.9464 7.53409 51.9464 7.15057C51.9464 6.76231 52.0932 6.43324 52.3867 6.16335C52.6803 5.88873 53.0307 5.75142 53.4379 5.75142C53.8498 5.75142 54.2002 5.88873 54.489 6.16335C54.7826 6.43324 54.9293 6.76231 54.9293 7.15057C54.9293 7.53409 54.7826 7.86316 54.489 8.13778C54.2002 8.40767 53.8498 8.54261 53.4379 8.54261ZM59.7038 17.5767L59.6967 14.473H60.1087L64.0291 10.0909H67.0334L62.2109 15.4602H61.6783L59.7038 17.5767ZM57.3601 21V6.45455H59.9311V21H57.3601ZM64.2067 21L60.6555 16.0355L62.3885 14.2244L67.282 21H64.2067ZM73.0561 21.2131C71.9908 21.2131 71.0675 20.9787 70.2862 20.5099C69.505 20.0412 68.8989 19.3854 68.468 18.5426C68.0419 17.6998 67.8288 16.715 67.8288 15.5881C67.8288 14.4612 68.0419 13.474 68.468 12.6264C68.8989 11.7789 69.505 11.1207 70.2862 10.652C71.0675 10.1832 71.9908 9.94886 73.0561 9.94886C74.1214 9.94886 75.0447 10.1832 75.826 10.652C76.6072 11.1207 77.2109 11.7789 77.6371 12.6264C78.0679 13.474 78.2834 14.4612 78.2834 15.5881C78.2834 16.715 78.0679 17.6998 77.6371 18.5426C77.2109 19.3854 76.6072 20.0412 75.826 20.5099C75.0447 20.9787 74.1214 21.2131 73.0561 21.2131ZM73.0703 19.1534C73.648 19.1534 74.1309 18.9948 74.5192 18.6776C74.9074 18.3556 75.1963 17.9247 75.3857 17.3849C75.5798 16.8452 75.6768 16.2438 75.6768 15.581C75.6768 14.9134 75.5798 14.3097 75.3857 13.7699C75.1963 13.2254 74.9074 12.7921 74.5192 12.4702C74.1309 12.1482 73.648 11.9872 73.0703 11.9872C72.4785 11.9872 71.986 12.1482 71.593 12.4702C71.2048 12.7921 70.9136 13.2254 70.7195 13.7699C70.5301 14.3097 70.4354 14.9134 70.4354 15.581C70.4354 16.2438 70.5301 16.8452 70.7195 17.3849C70.9136 17.9247 71.2048 18.3556 71.593 18.6776C71.986 18.9948 72.4785 19.1534 73.0703 19.1534ZM83.0366 6.45455V21H80.4656V6.45455H83.0366ZM87.2642 21.1562C86.8333 21.1562 86.464 21.0047 86.1562 20.7017C85.8485 20.3987 85.697 20.0294 85.7017 19.5938C85.697 19.1676 85.8485 18.803 86.1562 18.5C86.464 18.197 86.8333 18.0455 87.2642 18.0455C87.6809 18.0455 88.0431 18.197 88.3509 18.5C88.6634 18.803 88.822 19.1676 88.8267 19.5938C88.822 19.8826 88.7462 20.1454 88.5994 20.3821C88.4574 20.6188 88.268 20.8082 88.0312 20.9503C87.7992 21.0876 87.5436 21.1562 87.2642 21.1562ZM93.4627 21H90.6502L95.771 6.45455H99.0238L104.152 21H101.339L97.4542 9.4375H97.3406L93.4627 21ZM93.555 15.2969H101.225V17.4134H93.555V15.2969ZM106.032 21V10.0909H108.603V21H106.032ZM107.325 8.54261C106.917 8.54261 106.567 8.40767 106.273 8.13778C105.98 7.86316 105.833 7.53409 105.833 7.15057C105.833 6.76231 105.98 6.43324 106.273 6.16335C106.567 5.88873 106.917 5.75142 107.325 5.75142C107.737 5.75142 108.087 5.88873 108.376 6.16335C108.669 6.43324 108.816 6.76231 108.816 7.15057C108.816 7.53409 108.669 7.86316 108.376 8.13778C108.087 8.40767 107.737 8.54261 107.325 8.54261Z" fill="#FBFBFB"/>
</g>
<defs>
<clipPath id="clip0_198_524">
<rect width="110" height="28" fill="white"/>
</clipPath>
</defs>
</svg>
